<svg width="468" height="83" viewBox="0 0 468 83" fill="none" xmlns="http://www.w3.org/2000/svg">
<rect width="468" height="83" rx="6" fill="#212121"/>
<path d="M211.736 50V33.2H218.984C220.856 33.2 222.304 33.576 223.328 34.328C224.368 35.08 224.888 36.144 224.888 37.52C224.888 38.432 224.672 39.2 224.24 39.824C223.824 40.448 223.248 40.92 222.512 41.24C221.792 41.56 221 41.72 220.136 41.72L220.544 41.144C221.616 41.144 222.536 41.312 223.304 41.648C224.088 41.968 224.696 42.456 225.128 43.112C225.56 43.752 225.776 44.552 225.776 45.512C225.776 46.936 225.248 48.04 224.192 48.824C223.152 49.608 221.576 50 219.464 50H211.736ZM213.512 48.536H219.44C220.912 48.536 222.04 48.288 222.824 47.792C223.608 47.28 224 46.472 224 45.368C224 44.28 223.608 43.488 222.824 42.992C222.04 42.48 220.912 42.224 219.44 42.224H213.32V40.76H218.864C220.208 40.76 221.248 40.504 221.984 39.992C222.736 39.48 223.112 38.72 223.112 37.712C223.112 36.688 222.736 35.928 221.984 35.432C221.248 34.92 220.208 34.664 218.864 34.664H213.512V48.536ZM234.678 50.12C233.606 50.12 232.67 49.92 231.87 49.52C231.07 49.12 230.446 48.52 229.998 47.72C229.566 46.92 229.35 45.92 229.35 44.72V37.4H231.054V44.528C231.054 45.872 231.382 46.888 232.038 47.576C232.71 48.248 233.646 48.584 234.846 48.584C235.726 48.584 236.486 48.408 237.126 48.056C237.782 47.688 238.278 47.16 238.614 46.472C238.966 45.784 239.142 44.96 239.142 44V37.4H240.846V50H239.214V46.544L239.478 47.168C239.078 48.096 238.454 48.824 237.606 49.352C236.774 49.864 235.798 50.12 234.678 50.12ZM245.691 54.776C245.099 54.776 244.531 54.68 243.987 54.488C243.459 54.296 243.003 54.008 242.619 53.624L243.411 52.352C243.731 52.656 244.075 52.888 244.443 53.048C244.827 53.224 245.251 53.312 245.715 53.312C246.275 53.312 246.755 53.152 247.155 52.832C247.571 52.528 247.963 51.984 248.331 51.2L249.147 49.352L249.339 49.088L254.523 37.4H256.203L249.891 51.512C249.539 52.328 249.147 52.976 248.715 53.456C248.299 53.936 247.843 54.272 247.347 54.464C246.851 54.672 246.299 54.776 245.691 54.776ZM249.051 50.36L243.243 37.4H245.019L250.155 48.968L249.051 50.36Z" fill="white"/>
</svg>
