<svg width="33" height="33" viewBox="0 0 33 33" fill="none" xmlns="http://www.w3.org/2000/svg">
<circle cx="16.1074" cy="16.731" r="16" fill="white"/>
<rect width="20" height="20" transform="translate(6.10742 6.73096)" fill="white"/>
<path d="M25.2747 9.23104C24.4767 9.79393 23.5932 10.2245 22.6581 10.506C22.1562 9.92896 21.4892 9.51995 20.7473 9.33431C20.0053 9.14867 19.2243 9.19537 18.5098 9.46808C17.7953 9.7408 17.1818 10.2264 16.7522 10.8591C16.3227 11.4919 16.0978 12.2413 16.1081 13.006V13.8394C14.6436 13.8773 13.1925 13.5525 11.8839 12.8939C10.5754 12.2353 9.45 11.2632 8.60807 10.0644C8.60807 10.0644 5.27474 17.5644 12.7747 20.8977C11.0585 22.0627 9.01404 22.6468 6.94141 22.5644C14.4414 26.731 23.6081 22.5644 23.6081 12.981C23.6073 12.7489 23.585 12.5174 23.5414 12.2894C24.3919 11.4506 24.9921 10.3916 25.2747 9.23104V9.23104Z" stroke="#212121" stroke-linecap="round" stroke-linejoin="round"/>
</svg>
