<svg width="33" height="33" viewBox="0 0 33 33" fill="none" xmlns="http://www.w3.org/2000/svg">
<circle cx="16.1074" cy="16.731" r="16" fill="white"/>
<rect width="20" height="20" transform="translate(6.10742 6.73096)" fill="white"/>
<path d="M20.2734 8.39746H11.9401C9.63892 8.39746 7.77344 10.2629 7.77344 12.5641V20.8975C7.77344 23.1986 9.63892 25.0641 11.9401 25.0641H20.2734C22.5746 25.0641 24.4401 23.1986 24.4401 20.8975V12.5641C24.4401 10.2629 22.5746 8.39746 20.2734 8.39746Z" stroke="#212121" stroke-linecap="round" stroke-linejoin="round"/>
<path d="M19.4412 16.2057C19.544 16.8993 19.4255 17.6076 19.1026 18.2299C18.7797 18.8522 18.2688 19.3569 17.6425 19.6721C17.0163 19.9873 16.3065 20.0971 15.6143 19.9857C14.9221 19.8743 14.2826 19.5475 13.7869 19.0517C13.2911 18.5559 12.9643 17.9164 12.8529 17.2242C12.7415 16.532 12.8512 15.8223 13.1664 15.196C13.4817 14.5698 13.9863 14.0588 14.6086 13.7359C15.231 13.413 15.9393 13.2945 16.6328 13.3974C17.3403 13.5023 17.9952 13.8319 18.5009 14.3376C19.0066 14.8433 19.3363 15.4983 19.4412 16.2057Z" stroke="#212121" stroke-linecap="round" stroke-linejoin="round"/>
<path d="M20.6914 12.1475H20.6997" stroke="#212121" stroke-linecap="round" stroke-linejoin="round"/>
</svg>
