<svg width="43" height="48" viewBox="0 0 43 48" fill="none" xmlns="http://www.w3.org/2000/svg">
<path d="M36.2812 9.75H28.8906V7.5C28.8862 6.50696 28.5309 5.55599 27.9018 4.85379C27.2728 4.1516 26.4209 3.75493 25.5312 3.75H17.4688C16.5791 3.75493 15.7272 4.1516 15.0982 4.85379C14.4691 5.55599 14.1138 6.50696 14.1094 7.5V9.75H6.71875C6.54056 9.75 6.36966 9.82902 6.24366 9.96967C6.11766 10.1103 6.04688 10.3011 6.04688 10.5C6.04688 10.6989 6.11766 10.8897 6.24366 11.0303C6.36966 11.171 6.54056 11.25 6.71875 11.25H8.73438V39C8.73438 39.5967 8.94673 40.169 9.32474 40.591C9.70274 41.0129 10.2154 41.25 10.75 41.25H32.25C32.7846 41.25 33.2973 41.0129 33.6753 40.591C34.0533 40.169 34.2656 39.5967 34.2656 39V11.25H36.2812C36.4594 11.25 36.6303 11.171 36.7563 11.0303C36.8823 10.8897 36.9531 10.6989 36.9531 10.5C36.9531 10.3011 36.8823 10.1103 36.7563 9.96967C36.6303 9.82902 36.4594 9.75 36.2812 9.75ZM15.4531 7.5C15.4531 6.90326 15.6655 6.33097 16.0435 5.90901C16.4215 5.48705 16.9342 5.25 17.4688 5.25H25.5312C26.0658 5.25 26.5785 5.48705 26.9565 5.90901C27.3345 6.33097 27.5469 6.90326 27.5469 7.5V9.75H15.4531V7.5ZM32.9219 39C32.9219 39.1989 32.8511 39.3897 32.7251 39.5303C32.5991 39.671 32.4282 39.75 32.25 39.75H10.75C10.5718 39.75 10.4009 39.671 10.2749 39.5303C10.1489 39.3897 10.0781 39.1989 10.0781 39V11.25H32.9219V39ZM18.1406 19.5V31.5C18.1406 31.6989 18.0698 31.8897 17.9438 32.0303C17.8178 32.171 17.6469 32.25 17.4688 32.25C17.2906 32.25 17.1197 32.171 16.9937 32.0303C16.8677 31.8897 16.7969 31.6989 16.7969 31.5V19.5C16.7969 19.3011 16.8677 19.1103 16.9937 18.9697C17.1197 18.829 17.2906 18.75 17.4688 18.75C17.6469 18.75 17.8178 18.829 17.9438 18.9697C18.0698 19.1103 18.1406 19.3011 18.1406 19.5ZM26.2031 19.5V31.5C26.2031 31.6989 26.1323 31.8897 26.0063 32.0303C25.8803 32.171 25.7094 32.25 25.5312 32.25C25.3531 32.25 25.1822 32.171 25.0562 32.0303C24.9302 31.8897 24.8594 31.6989 24.8594 31.5V19.5C24.8594 19.3011 24.9302 19.1103 25.0562 18.9697C25.1822 18.829 25.3531 18.75 25.5312 18.75C25.7094 18.75 25.8803 18.829 26.0063 18.9697C26.1323 19.1103 26.2031 19.3011 26.2031 19.5Z" fill="black"/>
</svg>
